<?xml version="1.0" encoding="UTF-8"?>
<!DOCTYPE svg PUBLIC "-//W3C//DTD SVG 1.1//EN" "http://www.w3.org/Graphics/SVG/1.1/DTD/svg11.dtd">
<!-- Creator: CorelDRAW 2019 (64-Bit) -->
<svg xmlns="http://www.w3.org/2000/svg" xml:space="preserve" width="50px" height="50px" version="1.1" style="shape-rendering:geometricPrecision; text-rendering:geometricPrecision; image-rendering:optimizeQuality; fill-rule:evenodd; clip-rule:evenodd"
viewBox="0 0 50 50"
 xmlns:xlink="http://www.w3.org/1999/xlink"
 xmlns:xodm="http://www.corel.com/coreldraw/odm/2003">
 <defs>
  <style type="text/css">
   <![CDATA[
    .fil1 {fill:none}
    .fil0 {fill:#3A6AD6}
    .fil2 {fill:#EAEAEA}
   ]]>
  </style>
 </defs>
 <g id="Layer_x0020_1">
  <metadata id="CorelCorpID_0Corel-Layer"/>
  <g id="_2142439268368">
   <path class="fil0" d="M41 29c0.24,-0.9 -0.31,-1.41 -1.17,-1.43 -5.33,-0.07 -11.17,0.01 -16.57,0.01 -0.97,0 -1.61,-0.08 -1.92,0.76 -0.42,1.19 -1.98,7.12 -2.42,8.62 -0.7,2.43 -1.82,6.23 -2.41,8.57 -0.24,0.95 0.31,1.43 1.23,1.44l16.56 0c0.99,0 1.6,0.08 1.89,-0.79 0.44,-1.36 0.82,-2.9 1.2,-4.31 1.18,-4.27 2.5,-8.62 3.61,-12.87z"/>
   <path class="fil0" d="M15.19 5.38c-0.79,0.21 -0.82,0.86 -1.05,1.65l-1.82 6.46c-0.81,2.86 -1.65,5.74 -2.42,8.63 -0.16,0.6 -0.6,1.59 -0.22,2.17 0.41,0.63 1.39,0.45 2.31,0.45 1.82,0 16.01,0.09 16.51,-0.03 0.72,-0.18 0.79,-0.97 1,-1.69 0.2,-0.7 0.4,-1.41 0.61,-2.16 0.39,-1.44 0.78,-2.86 1.21,-4.31 0.83,-2.84 1.61,-5.77 2.41,-8.62 0.19,-0.65 0.58,-1.51 0.24,-2.09 -0.38,-0.66 -1.36,-0.49 -2.27,-0.49 -1.8,0 -16.04,-0.09 -16.51,0.03z"/>
   <path class="fil0" d="M8.88 27.62c-0.79,0.22 -0.86,1.17 -1.09,2 -0.22,0.79 -0.46,1.61 -0.67,2.4 -0.45,1.6 -0.89,3.23 -1.35,4.8 -0.66,2.26 1.4,1.75 4.09,1.75 0.86,0 5.71,0.06 6.13,-0.03 0.81,-0.18 0.89,-1.23 1.1,-1.98l2.03 -7.21c0.3,-1.03 0.08,-1.76 -1.06,-1.77 -1.39,-0.02 -8.82,-0.06 -9.18,0.04z"/>
   <path class="fil0" d="M34.51 13.82c-0.75,0.22 -0.83,1.25 -1.05,2.04l-2.03 7.19c-0.31,1.04 0.03,1.68 1.14,1.69 1.43,0.02 8.76,0.08 9.18,-0.05 0.72,-0.21 0.84,-1.29 1.04,-2.02l2.03 -7.2c0.29,-1.04 0.03,-1.7 -1.13,-1.71 -1.5,-0.02 -8.69,-0.08 -9.18,0.06z"/>
  </g>
  <polyline class="fil1" points="101.96,-0.62 101.96,-0.78 51.59,-0.78 51.59,50 101.96,50 101.96,49.85 84.03,49.85 83.23,49.85 51.58,49.85 51.58,-0.62 "/>
  <path class="fil2" d="M83.23 49.85l0.8 0 -0.01 -0.21c0.42,0 0.33,0.04 0.42,-0.87 -0.43,-0.01 -0.42,0.07 -0.8,0.09l-0.04 0.67c-0.19,0.12 -0.09,0.07 -0.38,0.12l0.01 0.2z"/>
 </g>
</svg>
